<svg width="110" height="20" viewBox="0 0 110 20" fill="none" xmlns="http://www.w3.org/2000/svg">
<path d="M0 0H110L100 20H10L0 0Z" fill="#FFAA2C"/>
<path d="M26.7891 15V7H31.9922V8.21484H28.2383V10.3867H31.7227V11.6016H28.2383V13.7852H32.0234V15H26.7891ZM33.4707 7H35.2441L37.6191 12.7969H37.7129L40.0879 7H41.8613V15H40.4707V9.50391H40.3965L38.1855 14.9766H37.1465L34.9355 9.49219H34.8613V15H33.4707V7ZM43.4395 15V7H46.4395C47.054 7 47.5697 7.11458 47.9863 7.34375C48.4056 7.57292 48.722 7.88802 48.9355 8.28906C49.1517 8.6875 49.2598 9.14062 49.2598 9.64844C49.2598 10.1615 49.1517 10.6172 48.9355 11.0156C48.7194 11.4141 48.4004 11.7279 47.9785 11.957C47.5566 12.1836 47.0371 12.2969 46.4199 12.2969H44.4316V11.1055H46.2246C46.584 11.1055 46.8783 11.043 47.1074 10.918C47.3366 10.793 47.5059 10.6211 47.6152 10.4023C47.7272 10.1836 47.7832 9.93229 47.7832 9.64844C47.7832 9.36458 47.7272 9.11458 47.6152 8.89844C47.5059 8.68229 47.3353 8.51432 47.1035 8.39453C46.8743 8.27214 46.5788 8.21094 46.2168 8.21094H44.8887V15H43.4395ZM57.667 11C57.667 11.862 57.5055 12.6003 57.1826 13.2148C56.8623 13.8268 56.4248 14.2956 55.8701 14.6211C55.318 14.9466 54.6917 15.1094 53.9912 15.1094C53.2907 15.1094 52.6631 14.9466 52.1084 14.6211C51.5563 14.293 51.1188 13.8229 50.7959 13.2109C50.4756 12.5964 50.3154 11.8594 50.3154 11C50.3154 10.138 50.4756 9.40104 50.7959 8.78906C51.1188 8.17448 51.5563 7.70443 52.1084 7.37891C52.6631 7.05339 53.2907 6.89062 53.9912 6.89062C54.6917 6.89062 55.318 7.05339 55.8701 7.37891C56.4248 7.70443 56.8623 8.17448 57.1826 8.78906C57.5055 9.40104 57.667 10.138 57.667 11ZM56.21 11C56.21 10.3932 56.1149 9.88151 55.9248 9.46484C55.7373 9.04557 55.4769 8.72917 55.1436 8.51563C54.8102 8.29948 54.4261 8.19141 53.9912 8.19141C53.5563 8.19141 53.1722 8.29948 52.8389 8.51563C52.5055 8.72917 52.2438 9.04557 52.0537 9.46484C51.8662 9.88151 51.7725 10.3932 51.7725 11C51.7725 11.6068 51.8662 12.1198 52.0537 12.5391C52.2438 12.9557 52.5055 13.2721 52.8389 13.4883C53.1722 13.7018 53.5563 13.8086 53.9912 13.8086C54.4261 13.8086 54.8102 13.7018 55.1436 13.4883C55.4769 13.2721 55.7373 12.9557 55.9248 12.5391C56.1149 12.1198 56.21 11.6068 56.21 11ZM59.0371 15V7H62.0371C62.6517 7 63.1673 7.10677 63.584 7.32031C64.0033 7.53385 64.3197 7.83333 64.5332 8.21875C64.7493 8.60156 64.8574 9.04818 64.8574 9.55859C64.8574 10.0716 64.748 10.5169 64.5293 10.8945C64.3132 11.2695 63.9941 11.5599 63.5723 11.7656C63.1504 11.9687 62.6322 12.0703 62.0176 12.0703H59.8809V10.8672H61.8223C62.1816 10.8672 62.4759 10.8177 62.7051 10.7187C62.9342 10.6172 63.1035 10.4701 63.2129 10.2773C63.3249 10.082 63.3809 9.84245 63.3809 9.55859C63.3809 9.27474 63.3249 9.03255 63.2129 8.83203C63.1009 8.62891 62.9303 8.47526 62.7012 8.37109C62.472 8.26432 62.1764 8.21094 61.8145 8.21094H60.4863V15H59.0371ZM63.1699 11.375L65.1504 15H63.5332L61.5879 11.375H63.1699ZM67.6406 7V15H66.1914V7H67.6406ZM74.2529 7H75.7021V12.2266C75.7021 12.7995 75.5667 13.3034 75.2959 13.7383C75.0277 14.1732 74.6501 14.513 74.1631 14.7578C73.6761 15 73.1071 15.1211 72.4561 15.1211C71.8024 15.1211 71.2321 15 70.7451 14.7578C70.2581 14.513 69.8805 14.1732 69.6123 13.7383C69.3441 13.3034 69.21 12.7995 69.21 12.2266V7H70.6592V12.1055C70.6592 12.4388 70.7321 12.7357 70.8779 12.9961C71.0264 13.2565 71.2347 13.4609 71.5029 13.6094C71.7712 13.7552 72.0889 13.8281 72.4561 13.8281C72.8232 13.8281 73.141 13.7552 73.4092 13.6094C73.68 13.4609 73.8883 13.2565 74.0342 12.9961C74.18 12.7357 74.2529 12.4388 74.2529 12.1055V7ZM77.2773 7H79.0508L81.4258 12.7969H81.5195L83.8945 7H85.668V15H84.2773V9.50391H84.2031L81.9922 14.9766H80.9531L78.7422 9.49219H78.668V15H77.2773V7Z" fill="white"/>
</svg>
