<svg width="25" height="25" viewBox="0 0 25 25" fill="none" xmlns="http://www.w3.org/2000/svg">
<circle cx="12.5" cy="12.5" r="11.25" stroke="#BBBBBB" stroke-width="1.5"/>
<path d="M9 8.79578V8.79578C8.44772 8.79578 8 8.34806 8 7.79578V7.29578C8 6.46735 8.67157 5.79578 9.5 5.79578V5.79578C10.3284 5.79578 11 6.46735 11 7.29578V8.04578C11 8.45999 10.6642 8.79578 10.25 8.79578V8.79578C9.83579 8.79578 9.5 9.13156 9.5 9.54578V17.7958V18.2515C9.5 19.1044 10.1914 19.7958 11.0443 19.7958V19.7958C11.7529 19.7958 12.3706 19.3135 12.5424 18.626L13 16.7958L13.5 14.2958M13.5 14.2958L12 15.7958M13.5 14.2958L14.5 16.2958" stroke="#BBBBBB" stroke-width="2" stroke-linecap="round"/>
<path d="M17.978 12.4665L17.0076 6.45111" stroke="#BBBBBB" stroke-width="0.8" stroke-linecap="round"/>
<path d="M16.3484 11.5577C18.43 12.5866 20.2873 10.012 17.3846 9.4614C14.4819 8.91083 16.3391 6.33614 18.4208 7.36504" stroke="#BBBBBB" stroke-width="0.8" stroke-linecap="round"/>
</svg>
