<svg width="80" height="80" viewBox="0 0 80 80" fill="none" xmlns="http://www.w3.org/2000/svg">
<path d="M7 57.8918L73.3923 44" stroke="#CACACA" stroke-width="3" stroke-linecap="round"/>
<path d="M41.5938 54.8042L46.7808 64.2612C47.0732 64.7943 46.6874 65.4459 46.0793 65.4459H35.7053C35.0973 65.4459 34.7115 64.7943 35.0039 64.2612L40.1909 54.8042C40.4946 54.2505 41.2901 54.2505 41.5938 54.8042Z" stroke="#CACACA" stroke-width="2"/>
<circle cx="61" cy="29" r="11.25" stroke="#CACACA" stroke-width="1.5"/>
<path d="M59 23.7366V23.317H59.625V25.8303H56.75V20.9732H65.25V25.8303H62.375V23.317H63V23.7366V23.9866H63.25H64H64.25V23.7366V22.3973V22.1473H64H61.1875H61.0625H60.9375H60.8125H58H57.75V22.3973V23.7366V23.9866H58H58.75H59V23.7366ZM60.9375 35.0357H61.0625H61.1875H64H64.25V34.7857V33.4464V33.1964H64H63.25H63V33.4464V33.8661H62.375V27H65.25V35.0021L61.0071 38.4747L56.75 34.6738V27H59.625V33.8661H59V33.4464V33.1964H58.75H58H57.75V33.4464V34.7857V35.0357H58H60.8125H60.9375Z" fill="#CACACA" stroke="#CACACA" stroke-width="0.5"/>
<g clip-path="url(#clip0_846_40)">
<path d="M14.9523 42.4197V45.4206C14.9523 46.203 15.5865 46.8373 16.3689 46.8373C17.1513 46.8373 17.7856 46.203 17.7856 45.4206V45.1079C17.7856 44.4372 18.3293 43.8936 18.9999 43.8936C19.6705 43.8936 20.2142 44.4372 20.2142 45.1079V45.4206C20.2142 46.203 20.8484 46.8373 21.6308 46.8373C22.4132 46.8373 23.0475 46.203 23.0475 45.4206V42.4197C23.0475 41.9566 22.8336 41.5196 22.468 41.2354L19.9204 39.2552C19.3789 38.8343 18.6209 38.8343 18.0794 39.2552L15.5317 41.2354C15.1661 41.5196 14.9523 41.9566 14.9523 42.4197Z" stroke="#CACACA" stroke-width="1.2" stroke-linecap="round"/>
<path d="M13.7379 40.6309L18.0573 37.1422C18.6072 36.6981 19.3925 36.6981 19.9423 37.1422L24.2617 40.6309" stroke="#CACACA" stroke-width="1.2" stroke-linecap="round"/>
<path d="M14.9521 37.2857V38.619C14.9521 39.0311 15.4225 39.2663 15.7521 39.019L16.3712 38.5548C16.4971 38.4603 16.5712 38.3121 16.5712 38.1548V37.2857C16.5712 37.0096 16.3473 36.7857 16.0712 36.7857H15.4521C15.176 36.7857 14.9521 37.0096 14.9521 37.2857Z" stroke="#CACACA" stroke-width="0.9"/>
</g>
<circle cx="19" cy="42" r="8.6" stroke="#CACACA" stroke-width="1.2"/>
<path d="M35 69H47" stroke="#CACACA" stroke-width="1.5" stroke-linecap="round"/>
<defs>
<clipPath id="clip0_846_40">
<rect width="12.9524" height="12.9524" fill="white" transform="translate(12.5237 34.7619)"/>
</clipPath>
</defs>
</svg>
