<svg width="25" height="25" viewBox="0 0 25 25" fill="none" xmlns="http://www.w3.org/2000/svg">
<circle cx="12.5" cy="12.5" r="11.25" stroke="#BBBBBB" stroke-width="1.5"/>
<path d="M9.54688 19C9.54688 19.7249 9.28737 19.9844 8.5625 19.9844C7.83763 19.9844 7.57812 19.7249 7.57812 19" stroke="#BBBBBB"/>
<path d="M17.4219 19C17.4219 19.7249 17.1624 19.9844 16.4375 19.9844C15.7126 19.9844 15.4531 19.7249 15.4531 19" stroke="#BBBBBB"/>
<path d="M18.9 15.54V17.46C18.9 17.9791 18.4791 18.4 17.96 18.4H7.04C6.52085 18.4 6.1 17.9791 6.1 17.46V15.54C6.1 15.0209 6.52085 14.6 7.04 14.6H12.5H17.96C18.4791 14.6 18.9 15.0209 18.9 15.54Z" stroke="#BBBBBB" stroke-width="1.2"/>
<circle cx="8.89062" cy="16.7844" r="0.684375" stroke="#BBBBBB" stroke-width="0.6"/>
<circle cx="16.1094" cy="16.7844" r="0.684375" stroke="#BBBBBB" stroke-width="0.6"/>
<path d="M7.5 14.5L8.2806 10.4855C8.33542 10.2035 8.58236 10 8.86957 10H16.1304C16.4176 10 16.6646 10.2035 16.7194 10.4855L17.5 14.5" stroke="#BBBBBB" stroke-width="1.2" stroke-linecap="round"/>
<path d="M4.625 9.59375L12.1977 5.17636C12.3845 5.06738 12.6155 5.06738 12.8023 5.17635L20.375 9.59375" stroke="#BBBBBB" stroke-width="1.5" stroke-linecap="round"/>
</svg>
