<svg width="25" height="25" viewBox="0 0 25 25" fill="none" xmlns="http://www.w3.org/2000/svg">
<circle cx="12.5" cy="12.5" r="11.25" stroke="#BBBBBB" stroke-width="1.5"/>
<path d="M17.4 19.35H5.89999C5.76192 19.35 5.64999 19.2381 5.64999 19.1V7.60001C5.64999 7.46193 5.76192 7.35001 5.89999 7.35001H12.3375C12.4756 7.35001 12.5875 7.46194 12.5875 7.60001V10.6625C12.5875 11.629 13.371 12.4125 14.3375 12.4125H17.4C17.5381 12.4125 17.65 12.5244 17.65 12.6625V19.1C17.65 19.2381 17.5381 19.35 17.4 19.35Z" stroke="#BBBBBB" stroke-width="1.5"/>
<path d="M14.483 11V6.63636H15.6364V7.40625H15.6875C15.7784 7.15057 15.9299 6.94886 16.142 6.80114C16.3542 6.65341 16.608 6.57955 16.9034 6.57955C17.2027 6.57955 17.4574 6.65436 17.6676 6.80398C17.8778 6.9517 18.018 7.15246 18.0881 7.40625H18.1335C18.2225 7.15625 18.3835 6.95644 18.6165 6.80682C18.8513 6.6553 19.1288 6.57955 19.4489 6.57955C19.8561 6.57955 20.1866 6.70928 20.4403 6.96875C20.696 7.22633 20.8239 7.59186 20.8239 8.06534V11H19.6165V8.30398C19.6165 8.06155 19.5521 7.87973 19.4233 7.75852C19.2945 7.63731 19.1335 7.5767 18.9403 7.5767C18.7206 7.5767 18.5492 7.64678 18.4261 7.78693C18.303 7.92519 18.2415 8.10795 18.2415 8.33523V11H17.0682V8.27841C17.0682 8.06439 17.0066 7.89394 16.8835 7.76705C16.7623 7.64015 16.6023 7.5767 16.4034 7.5767C16.2689 7.5767 16.1477 7.6108 16.0398 7.67898C15.9337 7.74527 15.8494 7.83902 15.7869 7.96023C15.7244 8.07955 15.6932 8.2197 15.6932 8.38068V11H14.483Z" fill="#BBBBBB"/>
<line x1="17.0757" y1="19.6242" x2="5.37574" y2="7.92425" stroke="#BBBBBB" stroke-width="1.2" stroke-dasharray="1.6 1.6"/>
</svg>
