<svg width="18" height="19" viewBox="0 0 18 19" fill="none" xmlns="http://www.w3.org/2000/svg">
<path d="M12.0202 3.5625H5.97977C5.54052 3.5625 5.12334 3.75503 4.83835 4.08928L3.51692 5.63911C3.09658 6.1321 3.04025 6.83923 3.37723 7.39255L7.71889 14.5214C8.30337 15.4811 9.69663 15.4811 10.2811 14.5214L14.6228 7.39255C14.9598 6.83923 14.9034 6.1321 14.4831 5.63911L13.1617 4.08928C12.8767 3.75503 12.4595 3.5625 12.0202 3.5625Z" stroke="#6B6B6B" stroke-width="1.5" stroke-linecap="round"/>
<path d="M5.90625 4.75L6.84243 6.72637C7.02606 7.11404 7.58056 7.10568 7.75242 6.71264L9 3.85938" stroke="#6B6B6B" stroke-width="0.8" stroke-linecap="round"/>
<path d="M9 3.85938L10.2642 6.75056C10.4333 7.13729 10.9759 7.15344 11.1677 6.77745L12.6562 3.85938" stroke="#6B6B6B" stroke-width="0.8" stroke-linecap="round"/>
<path d="M3.375 6.53125L7.25803 7.40956C7.29423 7.41774 7.33123 7.42188 7.36834 7.42188H10.6226C10.6657 7.42188 10.7086 7.41631 10.7502 7.40533L14.0625 6.53125" stroke="#6B6B6B" stroke-width="0.8" stroke-linecap="round"/>
<path d="M8.5082 13.9429L7.42072 8.01205C7.3644 7.70492 7.60026 7.42188 7.91252 7.42188H10.0875C10.3997 7.42188 10.6356 7.70492 10.5793 8.01205L9.4918 13.9429C9.39161 14.4893 8.60839 14.4893 8.5082 13.9429Z" stroke="#6B6B6B" stroke-width="0.8" stroke-linecap="round"/>
</svg>
