<svg width="26" height="23" viewBox="0 0 26 23" fill="none" xmlns="http://www.w3.org/2000/svg">
<rect x="5.75" y="11.8257" width="14.5" height="2.075" rx="1.0375" stroke="#6B6B6B" stroke-width="1.5"/>
<path d="M8.125 14.1538C8.1193 19.9026 17.8907 19.905 17.875 14.1538" stroke="#6B6B6B" stroke-width="1.5" stroke-linecap="round"/>
<path d="M9.75002 11.7523H7.31256C7.26097 8.64886 9.13393 6.8214 11.375 6.22348M9.75002 11.7523V9.59849M9.75002 11.7523H16.25M16.25 11.7523H18.6874C18.8848 8.63387 16.9514 6.76323 14.625 6.19229M16.25 11.7523V9.59849" stroke="#6B6B6B" stroke-width="1.5" stroke-linecap="round"/>
<path d="M12.0738 8.01682C12.0738 8.01682 11.1035 5.48171 11.4496 4.86939C11.7957 4.25707 14.2894 4.29176 14.5708 4.86939C14.8522 5.44702 13.9466 8.01682 13.9466 8.01682" stroke="#6B6B6B" stroke-width="1.5" stroke-linecap="round"/>
</svg>
