<svg width="25" height="25" viewBox="0 0 25 25" fill="none" xmlns="http://www.w3.org/2000/svg">
<circle cx="12.5" cy="12.5" r="11.25" stroke="#BBBBBB" stroke-width="1.5"/>
<path d="M10.8246 19.5208C11.0407 18.94 11.688 18.4772 12.5 18.4772C13.312 18.4772 13.9593 18.94 14.1754 19.5208C14.1754 19.521 14.1755 19.5212 14.1756 19.5214C14.1748 19.5224 14.1738 19.5236 14.1726 19.525C14.1561 19.5435 14.1144 19.5687 14.0563 19.5687H10.9438C10.8856 19.5687 10.8439 19.5435 10.8274 19.525C10.8262 19.5236 10.8252 19.5224 10.8244 19.5214C10.8245 19.5212 10.8246 19.521 10.8246 19.5208Z" stroke="#BBBBBB" stroke-width="0.8"/>
<path d="M12.5 18.375V15.875" stroke="#BBBBBB" stroke-width="0.8"/>
<path d="M15.7999 14.375H9.20015C8.74427 14.375 8.45492 14.8633 8.67389 15.2632L8.7355 15.3757C8.84079 15.568 9.04255 15.6875 9.26175 15.6875H15.7382C15.9575 15.6875 16.1592 15.568 16.2645 15.3757L16.3261 15.2632C16.5451 14.8633 16.2557 14.375 15.7999 14.375Z" stroke="#BBBBBB" stroke-width="0.8"/>
<path d="M15.6005 9.00029C14.6985 9.00936 10.2449 8.9981 9.37783 9.00029C8.5108 9.00248 9.33087 10.6034 9.89639 10.6H15.0819C15.6776 10.5908 16.5024 8.99122 15.6005 9.00029Z" stroke="#BBBBBB" stroke-width="0.8"/>
<path d="M12.5 14.375V10.5" stroke="#BBBBBB" stroke-width="0.8"/>
<path d="M12.5 4L5.54962 8.63359C5.38497 8.74335 5.46267 9 5.66056 9H9.09091M12.5 4L19.4504 8.63359C19.615 8.74336 19.5373 9 19.3394 9H15.9091M12.5 4L9.09091 9M12.5 4L15.9091 9M9.09091 9H15.9091" stroke="#BBBBBB" stroke-width="0.8"/>
<path d="M5.88889 10.6C5.19627 10.6 5.04334 9.62857 5.00957 9.19958C5.0009 9.08946 5.08954 9 5.2 9H8.75681C8.88277 9 8.97633 9.11437 8.9453 9.23644C8.83214 9.68164 8.54601 10.6 8.11111 10.6H5.88889Z" stroke="#BBBBBB" stroke-width="0.8"/>
<path d="M16.8889 10.6C16.1963 10.6 16.0433 9.62857 16.0096 9.19958C16.0009 9.08946 16.0895 9 16.2 9H19.7568C19.8828 9 19.9763 9.11437 19.9453 9.23644C19.8321 9.68164 19.546 10.6 19.1111 10.6H16.8889Z" stroke="#BBBBBB" stroke-width="0.8"/>
</svg>
