<svg width="19" height="16" viewBox="0 0 19 16" fill="none" xmlns="http://www.w3.org/2000/svg">
<g clip-path="url(#clip0_1053_3)">
<path d="M16.5 9C17.0523 9 17.5 8.55228 17.5 8C17.5 7.44772 17.0523 7 16.5 7V9ZM1.79289 7.29289C1.40237 7.68342 1.40237 8.31658 1.79289 8.70711L8.15686 15.0711C8.54738 15.4616 9.18054 15.4616 9.57107 15.0711C9.96159 14.6805 9.96159 14.0474 9.57107 13.6569L3.91421 8L9.57107 2.34315C9.96159 1.95262 9.96159 1.31946 9.57107 0.928932C9.18054 0.538408 8.54738 0.538408 8.15686 0.928932L1.79289 7.29289ZM16.5 7L2.5 7V9L16.5 9V7Z" fill="white"/>
</g>
<defs>
<clipPath id="clip0_1053_3">
<rect width="15" height="18" fill="white" transform="matrix(0 -1 1 0 0.5 15.5)"/>
</clipPath>
</defs>
</svg>
