<svg width="25" height="25" viewBox="0 0 25 25" fill="none" xmlns="http://www.w3.org/2000/svg">
<path d="M7.1875 12.8216V17.349C7.1875 18.1774 7.85907 18.849 8.6875 18.849H9.40625C10.2347 18.849 10.9063 18.1774 10.9063 17.349V16.4854C10.9063 15.6569 11.5778 14.9854 12.4063 14.9854H12.5938C13.4222 14.9854 14.0938 15.6569 14.0938 16.4854V17.349C14.0938 18.1774 14.7653 18.849 15.5938 18.849H16.3125C17.1409 18.849 17.8125 18.1774 17.8125 17.349V12.8216C17.8125 12.3585 17.5986 11.9214 17.233 11.6372L13.4205 8.67388C12.879 8.25297 12.121 8.25297 11.5795 8.67388L7.76696 11.6372C7.40136 11.9214 7.1875 12.3585 7.1875 12.8216Z" stroke="#BBBBBB" stroke-width="1.5" stroke-linecap="round"/>
<path d="M5.59375 10.7031L11.5575 5.88625C12.1074 5.44214 12.8926 5.44214 13.4425 5.88625L19.4062 10.7031" stroke="#BBBBBB" stroke-width="1.5" stroke-linecap="round"/>
<path d="M7.1875 6.15625V8.375C7.1875 8.78702 7.65788 9.02221 7.9875 8.775L9.1125 7.93125C9.2384 7.83682 9.3125 7.68863 9.3125 7.53125V6.15625C9.3125 5.88011 9.08864 5.65625 8.8125 5.65625H7.6875C7.41136 5.65625 7.1875 5.88011 7.1875 6.15625Z" stroke="#BBBBBB"/>
<circle cx="12.5" cy="12.5" r="11.25" stroke="#BBBBBB" stroke-width="1.5"/>
</svg>
