<svg width="38" height="38" viewBox="0 0 38 38" fill="none" xmlns="http://www.w3.org/2000/svg">
<circle cx="19" cy="19" r="18" stroke="#BBBBBB" stroke-width="2"/>
<path d="M11.125 26.4811V11.5189C11.125 11.1279 11.6284 10.9692 11.8527 11.2896L17.0894 18.7706C17.1858 18.9083 17.1858 19.0917 17.0894 19.2294L11.8527 26.7104C11.6284 27.0308 11.125 26.8721 11.125 26.4811Z" stroke="#6D6D6D" stroke-width="1.5"/>
<path d="M26.875 11.5189L26.875 26.4811C26.875 26.8721 26.3716 27.0308 26.1473 26.7104L20.9106 19.2294C20.8142 19.0917 20.8142 18.9083 20.9106 18.7706L26.1473 11.2896C26.3716 10.9692 26.875 11.1279 26.875 11.5189Z" stroke="#6D6D6D" stroke-width="1.5"/>
<path d="M24.3334 9H13.6666C13.3385 9 13.15 9.37317 13.3446 9.63728L18.678 16.8755C18.8378 17.0924 19.1622 17.0924 19.322 16.8755L24.6554 9.63728C24.85 9.37317 24.6615 9 24.3334 9Z" fill="#6D6D6D" stroke="#6D6D6D" stroke-width="1.2"/>
<path d="M19.6 20C19.6 19.6686 19.3314 19.4 19 19.4C18.6686 19.4 18.4 19.6686 18.4 20H19.6ZM18.4 24L15.5359 30H22.4641L19.6 24H18.4ZM18.4 20V24.6H19.6V20H18.4Z" fill="#6D6D6D"/>
</svg>
