<svg width="25" height="25" viewBox="0 0 25 25" fill="none" xmlns="http://www.w3.org/2000/svg">
<circle cx="12.5" cy="12.5" r="11.25" stroke="#BBBBBB" stroke-width="1.5"/>
<g clip-path="url(#clip0_1135_61)">
<path d="M4.16301 14.2384L13.2202 6.32599C13.2386 6.30992 13.2622 6.30114 13.2867 6.3013L19.3875 6.34251C19.4475 6.34291 19.4937 6.39573 19.486 6.45526L18.7074 12.5064C18.7043 12.5306 18.6925 12.5529 18.6741 12.5689L9.61688 20.4813C9.57529 20.5177 9.51212 20.5134 9.47578 20.4718L4.1535 14.3795C4.11716 14.3379 4.12142 14.2747 4.16301 14.2384Z" stroke="#BBBBBB" stroke-width="1.4"/>
<path d="M11.9375 14.7874L11.7862 14.6141C11.6712 14.4825 11.5934 14.3373 11.5528 14.1785C11.5123 14.0178 11.5166 13.8575 11.5656 13.6977C11.6148 13.5359 11.7169 13.3873 11.872 13.2518C12.0293 13.1144 12.1904 13.0322 12.3553 13.005C12.5213 12.977 12.6801 12.9947 12.8319 13.0583C12.9838 13.1199 13.1176 13.217 13.2335 13.3497L13.3849 13.523C13.4999 13.6546 13.5781 13.8003 13.6197 13.9601C13.6603 14.1189 13.6556 14.2786 13.6055 14.4394C13.5563 14.6011 13.4542 14.7498 13.299 14.8853C13.1418 15.0227 12.9802 15.1044 12.8144 15.1304C12.6495 15.1576 12.4911 15.1403 12.3392 15.0787C12.1864 15.0161 12.0525 14.919 11.9375 14.7874ZM12.2531 14.2062L12.4045 14.3795C12.4708 14.4554 12.5516 14.5112 12.6469 14.5468C12.7432 14.5815 12.84 14.5563 12.9374 14.4713C13.0347 14.3863 13.0721 14.2952 13.0494 14.198C13.0279 14.0999 12.983 14.0118 12.9148 13.9337L12.7634 13.7604C12.6952 13.6823 12.6145 13.6245 12.5214 13.587C12.4283 13.5495 12.3314 13.5747 12.2309 13.6626C12.1346 13.7467 12.0972 13.8388 12.1186 13.9389C12.1401 14.039 12.1849 14.1281 12.2531 14.2062ZM8.6082 14.38L8.45681 14.2067C8.34093 14.0741 8.26321 13.9279 8.22365 13.7682C8.18316 13.6074 8.18743 13.4471 8.23646 13.2874C8.28657 13.1266 8.38811 12.9795 8.54108 12.8458C8.6994 12.7075 8.86102 12.6248 9.02594 12.5977C9.19085 12.5705 9.34972 12.5883 9.50254 12.651C9.65442 12.7126 9.7883 12.8097 9.90418 12.9423L10.0556 13.1156C10.1715 13.2483 10.2492 13.3945 10.2887 13.5542C10.3294 13.713 10.3246 13.8727 10.2745 14.0334C10.2245 14.1921 10.1215 14.3397 9.96529 14.4761C9.8091 14.6126 9.64802 14.6948 9.48203 14.7229C9.31618 14.7489 9.15779 14.7317 9.00684 14.6712C8.85603 14.6087 8.72315 14.5116 8.6082 14.38ZM8.92696 13.796L9.07836 13.9693C9.14658 14.0474 9.22784 14.1037 9.32215 14.1383C9.41753 14.1719 9.51229 14.1476 9.60643 14.0653C9.70485 13.9794 9.74274 13.8878 9.7201 13.7906C9.69853 13.6925 9.65364 13.6044 9.58542 13.5264L9.43403 13.3531C9.36581 13.275 9.28514 13.2172 9.19204 13.1797C9.09893 13.1422 9.00156 13.1678 8.89994 13.2566C8.80473 13.3398 8.76884 13.4315 8.79228 13.5317C8.81572 13.632 8.86061 13.7201 8.92696 13.796ZM11.0012 16.6918L10.3896 11.4318L10.8101 11.0646L11.4216 16.3245L11.0012 16.6918Z" fill="#BBBBBB"/>
<circle cx="16.225" cy="9.35002" r="1.275" stroke="#BBBBBB" stroke-width="0.6"/>
</g>
<defs>
<clipPath id="clip0_1135_61">
<rect width="21" height="21" fill="white" transform="translate(1 2)"/>
</clipPath>
</defs>
</svg>
