<svg width="25" height="25" viewBox="0 0 25 25" fill="none" xmlns="http://www.w3.org/2000/svg">
<mask id="path-1-inside-1_750_94" fill="white">
<rect x="5.5" y="4.5" width="14" height="2" rx="0.8"/>
</mask>
<rect x="5.5" y="4.5" width="14" height="2" rx="0.8" stroke="#BBBBBB" stroke-width="2" mask="url(#path-1-inside-1_750_94)"/>
<path d="M7.30001 16.3V5.69995H17.7V16.3V16.8H18.2H18.65L18.65 18.65H18.1269H6.87308H6.35001V16.8H6.80001H7.30001V16.3Z" stroke="#BBBBBB"/>
<rect x="4.9" y="18.8" width="15.2" height="1.2" rx="0.4" stroke="#BBBBBB" stroke-width="0.8"/>
<mask id="path-4-inside-2_750_94" fill="white">
<path d="M9.17499 9.2C9.17499 8.92385 9.39885 8.7 9.67499 8.7H11.05C11.3261 8.7 11.55 8.92385 11.55 9.2V10.7H9.17499V9.2Z"/>
</mask>
<path d="M9.17499 9.2C9.17499 8.92385 9.39885 8.7 9.67499 8.7H11.05C11.3261 8.7 11.55 8.92385 11.55 9.2V10.7H9.17499V9.2Z" stroke="#BBBBBB" stroke-width="1.2" mask="url(#path-4-inside-2_750_94)"/>
<mask id="path-5-inside-3_750_94" fill="white">
<path d="M13.45 9.2C13.45 8.92385 13.6738 8.7 13.95 8.7H15.325C15.6011 8.7 15.825 8.92385 15.825 9.2V10.7H13.45V9.2Z"/>
</mask>
<path d="M13.45 9.2C13.45 8.92385 13.6738 8.7 13.95 8.7H15.325C15.6011 8.7 15.825 8.92385 15.825 9.2V10.7H13.45V9.2Z" stroke="#BBBBBB" stroke-width="1.2" mask="url(#path-5-inside-3_750_94)"/>
<mask id="path-6-inside-4_750_94" fill="white">
<path d="M9.17499 12.6999C9.17499 12.4238 9.39885 12.1999 9.67499 12.1999H11.05C11.3261 12.1999 11.55 12.4238 11.55 12.6999V14.1999H9.17499V12.6999Z"/>
</mask>
<path d="M9.17499 12.6999C9.17499 12.4238 9.39885 12.1999 9.67499 12.1999H11.05C11.3261 12.1999 11.55 12.4238 11.55 12.6999V14.1999H9.17499V12.6999Z" stroke="#BBBBBB" stroke-width="1.2" mask="url(#path-6-inside-4_750_94)"/>
<mask id="path-7-inside-5_750_94" fill="white">
<path d="M13.45 12.6999C13.45 12.4238 13.6738 12.1999 13.95 12.1999H15.325C15.6011 12.1999 15.825 12.4238 15.825 12.6999V14.1999H13.45V12.6999Z"/>
</mask>
<path d="M13.45 12.6999C13.45 12.4238 13.6738 12.1999 13.95 12.1999H15.325C15.6011 12.1999 15.825 12.4238 15.825 12.6999V14.1999H13.45V12.6999Z" stroke="#BBBBBB" stroke-width="1.2" mask="url(#path-7-inside-5_750_94)"/>
<path d="M13.0938 18.7375H13.3937V18.4375V16.8563C13.3937 16.5801 13.1699 16.3562 12.8938 16.3562H12.1063C11.8301 16.3562 11.6062 16.5801 11.6062 16.8563V18.4375V18.7375H11.9062H13.0938Z" stroke="#BBBBBB" stroke-width="0.6"/>
<circle cx="12.5" cy="12.5" r="11.25" stroke="#BBBBBB" stroke-width="1.5"/>
</svg>
