<svg width="20" height="20" viewBox="0 0 20 20" fill="none" xmlns="http://www.w3.org/2000/svg">
<path fill-rule="evenodd" clip-rule="evenodd" d="M10 19C14.9706 19 19 14.9706 19 10C19 5.02944 14.9706 1 10 1C5.02944 1 1 5.02944 1 10C1 14.9706 5.02944 19 10 19ZM10.4819 3.364C10.2299 3.292 9.9779 3.28 9.7259 3.328C9.6659 3.34 9.6059 3.358 9.5459 3.382C8.9699 3.55 8.6039 3.886 8.4479 4.39C8.4239 4.462 8.4119 4.51 8.4119 4.534C8.3879 4.69 8.5499 5.908 8.8979 8.188C9.1739 9.952 9.3299 10.942 9.3659 11.158C9.4139 11.398 9.4679 11.536 9.5279 11.572C9.5399 11.584 9.5939 11.59 9.6899 11.59C10.1819 11.614 10.4699 11.608 10.5539 11.572C10.6379 11.5 10.8479 10.372 11.1839 8.188C11.4119 6.712 11.5499 5.818 11.5979 5.506C11.6699 4.942 11.6819 4.57 11.6339 4.39C11.4299 3.85 11.0459 3.508 10.4819 3.364ZM10.4459 12.796C10.1819 12.724 9.9479 12.712 9.7439 12.76C9.4559 12.832 9.2099 12.952 9.0059 13.12C8.7419 13.324 8.5619 13.606 8.4659 13.966C8.3939 14.242 8.3939 14.512 8.4659 14.776C8.4779 14.824 8.4959 14.878 8.5199 14.938C8.7119 15.466 9.0839 15.802 9.6359 15.946C9.8999 16.018 10.1699 16.018 10.4459 15.946C10.4939 15.934 10.5479 15.916 10.6079 15.892C11.1359 15.7 11.4719 15.328 11.6159 14.776C11.6879 14.512 11.6879 14.242 11.6159 13.966C11.6039 13.894 11.5799 13.828 11.5439 13.768C11.3399 13.252 10.9739 12.928 10.4459 12.796Z" fill="#FFC633"/>
</svg>
