<svg width="20" height="20" viewBox="0 0 20 20" fill="none" xmlns="http://www.w3.org/2000/svg">
<path d="M4 6.79578V6.79578C3.44772 6.79578 3 6.34806 3 5.79578V5.29578C3 4.46735 3.67157 3.79578 4.5 3.79578V3.79578C5.32843 3.79578 6 4.46735 6 5.29578V6.04578C6 6.45999 5.66421 6.79578 5.25 6.79578V6.79578C4.83579 6.79578 4.5 7.13156 4.5 7.54578L4.5 15.7958V16.2515C4.5 17.1044 5.19139 17.7958 6.04427 17.7958V17.7958C6.75289 17.7958 7.37057 17.3135 7.54243 16.626L8 14.7958L8.5 12.2958M8.5 12.2958L7 13.7958M8.5 12.2958L9.5 14.2958" stroke="#BBBBBB" stroke-width="2" stroke-linecap="round"/>
<path d="M12.2586 9.09323V3.00006" stroke="#BBBBBB" stroke-width="0.8" stroke-linecap="round"/>
<path d="M10.7946 7.93652C12.6857 9.28381 14.9293 7.03779 12.1514 6.03195C9.37347 5.02612 11.617 2.78008 13.5082 4.12738" stroke="#BBBBBB" stroke-width="0.8" stroke-linecap="round"/>
<path d="M15.0465 15.889V9.79584" stroke="#BBBBBB" stroke-width="0.8" stroke-linecap="round"/>
<path d="M13.5824 14.7323C15.4736 16.0796 17.7172 13.8336 14.9392 12.8277C12.1613 11.8219 14.4049 9.57586 16.2961 10.9232" stroke="#BBBBBB" stroke-width="0.8" stroke-linecap="round"/>
</svg>
