<svg width="25" height="25" viewBox="0 0 25 25" fill="none" xmlns="http://www.w3.org/2000/svg">
<circle cx="12.5" cy="12.5" r="11.25" stroke="#BBBBBB" stroke-width="1.5"/>
<g clip-path="url(#clip0_752_278)">
<path d="M8.25735 7.34319C7.86683 6.95266 7.23366 6.95266 6.84314 7.34319C6.45262 7.73371 6.45262 8.36688 6.84314 8.7574L8.25735 7.34319ZM17.4497 18.9498C18.002 18.9498 18.4497 18.5021 18.4497 17.9498V8.94979C18.4497 8.3975 18.002 7.94979 17.4497 7.94979C16.8975 7.94979 16.4497 8.3975 16.4497 8.94979V16.9498H8.44974C7.89746 16.9498 7.44974 17.3975 7.44974 17.9498C7.44974 18.5021 7.89746 18.9498 8.44974 18.9498H17.4497ZM6.84314 8.7574L16.7426 18.6569L18.1568 17.2427L8.25735 7.34319L6.84314 8.7574Z" fill="#BBBBBB"/>
</g>
<defs>
<clipPath id="clip0_752_278">
<rect width="15" height="18" fill="white" transform="translate(24.1673 14.0607) rotate(135)"/>
</clipPath>
</defs>
</svg>
