<svg width="25" height="25" viewBox="0 0 25 25" fill="none" xmlns="http://www.w3.org/2000/svg">
<circle cx="12.4999" cy="12.5" r="11.25" stroke="#BBBBBB" stroke-width="1.5"/>
<g clip-path="url(#clip0_752_263)">
<path d="M15.6959 19.3076C16.0127 19.7601 16.6362 19.87 17.0886 19.5532C17.541 19.2364 17.651 18.6129 17.3342 18.1605L15.6959 19.3076ZM8.65862 6.28113C8.11473 6.18523 7.59607 6.5484 7.50017 7.09229L5.93733 15.9556C5.84143 16.4995 6.2046 17.0181 6.74849 17.114C7.29239 17.2099 7.81105 16.8468 7.90695 16.3029L9.29614 8.4244L17.1746 9.81358C17.7185 9.90949 18.2371 9.54632 18.3331 9.00242C18.429 8.45853 18.0658 7.93987 17.5219 7.84397L8.65862 6.28113ZM17.3342 18.1605L9.30413 6.69237L7.66582 7.83952L15.6959 19.3076L17.3342 18.1605Z" fill="#BBBBBB"/>
</g>
<defs>
<clipPath id="clip0_752_263">
<rect width="15" height="18" fill="white" transform="translate(1.19418 9.92944) rotate(-35)"/>
</clipPath>
</defs>
</svg>
