<svg width="38" height="38" viewBox="0 0 38 38" fill="none" xmlns="http://www.w3.org/2000/svg">
<circle cx="19" cy="19" r="18" stroke="#BBBBBB" stroke-width="2"/>
<path d="M15.6875 9.96875V9.15625H16.9688V13.4375H12.125V5.4375H25.875V13.4375H21.0312V9.15625H22.3125V9.96875V10.2188H22.5625H23.75H24V9.96875V7.84375V7.59375H23.75H19.2969H19.0469V7.84375V27.5V27.75H19.2969H23.75H24V27.5V25.375V25.125H23.75H22.5625H22.3125V25.375V26.1875H21.0312V15H25.875V27.913L19.0071 33.5459L12.125 27.3882V15H16.9688V26.1875H15.6875V25.375V25.125H15.4375H14.25H14V25.375V27.5V27.75H14.25H18.7031H18.9531V27.5V7.84375V7.59375H18.7031H14.25H14V7.84375V9.96875V10.2188H14.25H15.4375H15.6875V9.96875Z" fill="#6D6D6D" stroke="#6D6D6D" stroke-width="0.5"/>
</svg>
