<svg width="13" height="14" viewBox="0 0 13 14" fill="none" xmlns="http://www.w3.org/2000/svg">
<path fill-rule="evenodd" clip-rule="evenodd" d="M0.325557 2.98395C0.145757 2.77436 0.169904 2.4587 0.379491 2.2789L2.65643 0.325564C2.86602 0.145765 3.18168 0.169911 3.36148 0.379497L4.06385 1.19823L1.02794 3.80269L0.325557 2.98395ZM1.67905 4.56167L8.74274 12.7955C8.80702 12.8705 8.89203 12.9247 8.98706 12.9514L11.5905 13.6824C11.9341 13.7789 12.2651 13.4948 12.2221 13.1406L11.8955 10.4563C11.8836 10.3583 11.8429 10.266 11.7787 10.1911L4.71497 1.95721L1.67905 4.56167ZM11.6056 12.7976C11.6309 12.9464 11.4885 13.0686 11.3452 13.0209L9.2304 12.317C9.0829 12.2679 9.04536 12.0766 9.16335 11.9754L10.9041 10.482C11.0221 10.3808 11.2054 10.447 11.2315 10.6003L11.6056 12.7976Z" fill="white"/>
</svg>
