<svg width="38" height="38" viewBox="0 0 38 38" fill="none" xmlns="http://www.w3.org/2000/svg">
<circle cx="19" cy="19" r="18" stroke="#BBBBBB" stroke-width="2"/>
<path d="M18.1614 17.278C18.5557 16.671 19.4443 16.671 19.8386 17.278L26.2781 27.1922C26.7102 27.8574 26.2327 28.7369 25.4394 28.7369H12.5606C11.7673 28.7369 11.2898 27.8574 11.7219 27.1922L18.1614 17.278Z" fill="#6D6D6D"/>
<path fill-rule="evenodd" clip-rule="evenodd" d="M13.4815 18.7369L18.9999 10.2407L24.5184 18.7369H20.7861L21.7604 20.2369H25.4393C26.2326 20.2369 26.7101 19.3575 26.278 18.6922L19.8385 8.77805C19.4442 8.17099 18.5556 8.17099 18.1613 8.77805L11.7219 18.6922C11.2898 19.3575 11.7672 20.2369 12.5605 20.2369H16.2395L17.2137 18.7369H13.4815Z" fill="#6D6D6D"/>
</svg>
