<svg width="38" height="38" viewBox="0 0 38 38" fill="none" xmlns="http://www.w3.org/2000/svg">
<circle cx="19" cy="19" r="18" stroke="#BBBBBB" stroke-width="2"/>
<mask id="path-2-inside-1_723_51" fill="white">
<path fill-rule="evenodd" clip-rule="evenodd" d="M24.6246 22.2953C24.2573 22.3478 23.8818 22.375 23.5 22.375C19.1774 22.375 15.6682 18.8922 15.6254 14.5797C11.8089 15.1254 8.875 18.4076 8.875 22.375C8.875 26.7243 12.4008 30.25 16.75 30.25C21.0992 30.25 24.625 26.7243 24.625 22.375C24.625 22.3484 24.6249 22.3219 24.6246 22.2953Z"/>
</mask>
<path fill-rule="evenodd" clip-rule="evenodd" d="M24.6246 22.2953C24.2573 22.3478 23.8818 22.375 23.5 22.375C19.1774 22.375 15.6682 18.8922 15.6254 14.5797C11.8089 15.1254 8.875 18.4076 8.875 22.375C8.875 26.7243 12.4008 30.25 16.75 30.25C21.0992 30.25 24.625 26.7243 24.625 22.375C24.625 22.3484 24.6249 22.3219 24.6246 22.2953Z" fill="#6D6D6D"/>
<path d="M24.6246 22.2953L26.1245 22.2804L26.1075 20.568L24.4123 20.8104L24.6246 22.2953ZM15.6254 14.5797L17.1253 14.5648L17.1083 12.8524L15.4131 13.0948L15.6254 14.5797ZM24.4123 20.8104C24.1151 20.8529 23.8106 20.875 23.5 20.875V23.875C23.9531 23.875 24.3995 23.8428 24.8369 23.7802L24.4123 20.8104ZM23.5 20.875C20.0008 20.875 17.1599 18.0556 17.1253 14.5648L14.1255 14.5946C14.1764 19.7289 18.3539 23.875 23.5 23.875V20.875ZM10.375 22.375C10.375 19.1646 12.7496 16.5062 15.8377 16.0646L15.4131 13.0948C10.8682 13.7447 7.375 17.6506 7.375 22.375H10.375ZM16.75 28.75C13.2292 28.75 10.375 25.8958 10.375 22.375H7.375C7.375 27.5527 11.5723 31.75 16.75 31.75V28.75ZM23.125 22.375C23.125 25.8958 20.2708 28.75 16.75 28.75V31.75C21.9277 31.75 26.125 27.5527 26.125 22.375H23.125ZM23.1247 22.3102C23.1249 22.3318 23.125 22.3534 23.125 22.375H26.125C26.125 22.3434 26.1248 22.3119 26.1245 22.2804L23.1247 22.3102Z" fill="#6D6D6D" mask="url(#path-2-inside-1_723_51)"/>
<circle cx="23.5" cy="14.5" r="6" stroke="#6D6D6D" stroke-width="1.5"/>
</svg>
