<svg width="25" height="25" viewBox="0 0 25 25" fill="none" xmlns="http://www.w3.org/2000/svg">
<circle cx="12.5" cy="12.5" r="11.25" stroke="#BBBBBB" stroke-width="1.5"/>
<path d="M11.5 20C11.5 20.5523 11.9477 21 12.5 21C13.0523 21 13.5 20.5523 13.5 20H11.5ZM13.2071 5.29289C12.8166 4.90237 12.1834 4.90237 11.7929 5.29289L5.42893 11.6569C5.03841 12.0474 5.03841 12.6805 5.42893 13.0711C5.81946 13.4616 6.45262 13.4616 6.84315 13.0711L12.5 7.41421L18.1569 13.0711C18.5474 13.4616 19.1805 13.4616 19.5711 13.0711C19.9616 12.6805 19.9616 12.0474 19.5711 11.6569L13.2071 5.29289ZM13.5 20L13.5 6H11.5L11.5 20H13.5Z" fill="#BBBBBB"/>
</svg>
