<svg width="18" height="15" viewBox="0 0 18 15" fill="none" xmlns="http://www.w3.org/2000/svg">
<g clip-path="url(#clip0_1056_8)">
<path d="M2 6.5C1.44772 6.5 1 6.94772 1 7.5C1 8.05228 1.44772 8.5 2 8.5L2 6.5ZM16.7071 8.20711C17.0976 7.81658 17.0976 7.18342 16.7071 6.79289L10.3431 0.428932C9.95262 0.0384079 9.31946 0.0384079 8.92893 0.428932C8.53841 0.819456 8.53841 1.45262 8.92893 1.84315L14.5858 7.5L8.92893 13.1569C8.53841 13.5474 8.53841 14.1805 8.92893 14.5711C9.31946 14.9616 9.95262 14.9616 10.3431 14.5711L16.7071 8.20711ZM2 8.5L16 8.5V6.5L2 6.5L2 8.5Z" fill="white"/>
</g>
<defs>
<clipPath id="clip0_1056_8">
<rect width="15" height="18" fill="white" transform="matrix(0 1 -1 0 18 0)"/>
</clipPath>
</defs>
</svg>
