<svg width="18" height="18" viewBox="0 0 18 18" fill="none" xmlns="http://www.w3.org/2000/svg">
<path d="M13.4 16.35H1.9C1.76193 16.35 1.65 16.238 1.65 16.1V4.59998C1.65 4.4619 1.76193 4.34998 1.9 4.34998H8.3375C8.47557 4.34998 8.5875 4.4619 8.5875 4.59998V7.66248C8.5875 8.62897 9.371 9.41248 10.3375 9.41248H13.4C13.5381 9.41248 13.65 9.5244 13.65 9.66248V16.1C13.65 16.238 13.5381 16.35 13.4 16.35Z" stroke="#BBBBBB" stroke-width="1.5"/>
<path d="M10.483 8V3.63636H11.6364V4.40625H11.6875C11.7784 4.15057 11.9299 3.94886 12.1421 3.80114C12.3542 3.65341 12.608 3.57955 12.9034 3.57955C13.2027 3.57955 13.4574 3.65436 13.6676 3.80398C13.8778 3.9517 14.018 4.15246 14.0881 4.40625H14.1335C14.2225 4.15625 14.3835 3.95644 14.6165 3.80682C14.8513 3.6553 15.1288 3.57955 15.4489 3.57955C15.8561 3.57955 16.1866 3.70928 16.4403 3.96875C16.696 4.22633 16.8239 4.59186 16.8239 5.06534V8H15.6165V5.30398C15.6165 5.06155 15.5521 4.87973 15.4233 4.75852C15.2945 4.63731 15.1335 4.5767 14.9403 4.5767C14.7206 4.5767 14.5492 4.64678 14.4261 4.78693C14.303 4.92519 14.2415 5.10795 14.2415 5.33523V8H13.0682V5.27841C13.0682 5.06439 13.0066 4.89394 12.8835 4.76705C12.7623 4.64015 12.6023 4.5767 12.4034 4.5767C12.2689 4.5767 12.1477 4.6108 12.0398 4.67898C11.9337 4.74527 11.8494 4.83902 11.7869 4.96023C11.7244 5.07955 11.6932 5.2197 11.6932 5.38068V8H10.483Z" fill="#BBBBBB"/>
<line x1="13.0757" y1="16.6243" x2="1.37574" y2="4.92428" stroke="#BBBBBB" stroke-width="1.2" stroke-dasharray="1.6 1.6"/>
</svg>
