<svg width="21" height="21" viewBox="0 0 21 21" fill="none" xmlns="http://www.w3.org/2000/svg">
<path d="M15 8.0375C15 8.0374 15 8.03752 15 8.03788C14.9997 8.0425 14.9968 8.08592 14.9763 8.18301C14.9558 8.27982 14.9233 8.40458 14.8774 8.55679C14.7857 8.86092 14.6493 9.24608 14.4755 9.68701C14.1285 10.5678 13.6454 11.6387 13.1089 12.6731C12.57 13.7122 11.9905 14.6887 11.454 15.3948C11.1845 15.7496 10.9445 16.0109 10.7446 16.1765C10.6105 16.2876 10.5308 16.3254 10.5 16.338C10.4692 16.3254 10.3895 16.2876 10.2554 16.1765C10.0555 16.0109 9.81553 15.7496 9.54597 15.3948C9.00949 14.6887 8.42998 13.7122 7.8911 12.6731C7.35459 11.6387 6.87153 10.5678 6.52447 9.68701C6.35073 9.24608 6.2143 8.86092 6.12259 8.55679C6.07669 8.40458 6.04417 8.27982 6.0237 8.18301C6.00316 8.08592 6.00033 8.0425 6.00003 8.03788C6.00001 8.03752 6 8.0374 6 8.0375C6 4.98622 7.84469 2.75 10.5 2.75C13.1553 2.75 15 4.98622 15 8.0375Z" stroke="#6B6B6B" stroke-width="1.5"/>
<path fill-rule="evenodd" clip-rule="evenodd" d="M7.61808 14.1561C5.8135 14.6015 4.59375 15.4522 4.59375 16.4285C4.59375 17.866 7.23807 19.0313 10.5 19.0313C13.7619 19.0313 16.4062 17.866 16.4062 16.4285C16.4062 15.4522 15.1864 14.6014 13.3817 14.156C13.1575 14.5199 12.9136 14.8783 12.6495 15.2233C13.2449 15.3389 13.7674 15.4988 14.1924 15.6862C14.6358 15.8815 14.9198 16.0832 15.0764 16.2463C15.172 16.346 15.1986 16.4064 15.2052 16.4285C15.1986 16.4505 15.172 16.511 15.0764 16.6107C14.9198 16.7738 14.6358 16.9754 14.1924 17.1708C13.309 17.5601 12.0045 17.8313 10.5 17.8313C8.99553 17.8313 7.69103 17.5601 6.80756 17.1708C6.36417 16.9754 6.08022 16.7738 5.92364 16.6107C5.82798 16.511 5.80141 16.4505 5.79477 16.4285C5.80141 16.4064 5.82798 16.346 5.92364 16.2463C6.08022 16.0832 6.36417 15.8815 6.80756 15.6862C7.23255 15.4989 7.75498 15.3389 8.35023 15.2234C8.08617 14.8783 7.84231 14.5199 7.61808 14.1561ZM15.2072 16.419C15.2073 16.419 15.2072 16.4208 15.2064 16.4244C15.2066 16.4208 15.207 16.419 15.2072 16.419ZM5.79283 16.419C5.79299 16.419 5.79343 16.4208 5.79364 16.4243C5.79276 16.4208 5.79266 16.419 5.79283 16.419ZM5.79283 16.438C5.79266 16.438 5.79276 16.4362 5.79364 16.4326C5.79343 16.4362 5.79299 16.438 5.79283 16.438ZM15.2064 16.4326C15.2072 16.4362 15.2073 16.438 15.2072 16.438C15.207 16.438 15.2066 16.4362 15.2064 16.4326Z" fill="#6B6B6B"/>
<circle cx="10.5" cy="7.625" r="2.125" stroke="#6B6B6B"/>
</svg>
