<svg width="25" height="25" viewBox="0 0 25 25" fill="none" xmlns="http://www.w3.org/2000/svg">
<circle cx="12.5" cy="12.5" r="11.25" stroke="#BBBBBB" stroke-width="1.5"/>
<g clip-path="url(#clip0_752_268)">
<path d="M7.66583 18.1605C7.34906 18.6129 7.459 19.2364 7.91141 19.5532C8.36381 19.87 8.98736 19.7601 9.30414 19.3076L7.66583 18.1605ZM17.4999 7.09229C17.404 6.5484 16.8853 6.18523 16.3414 6.28113L7.47814 7.84397C6.93424 7.93987 6.57107 8.45853 6.66698 9.00242C6.76288 9.54632 7.28154 9.90949 7.82543 9.81358L15.7039 8.4244L17.0931 16.3029C17.189 16.8468 17.7076 17.2099 18.2515 17.114C18.7954 17.0181 19.1586 16.4995 19.0627 15.9556L17.4999 7.09229ZM9.30414 19.3076L17.3342 7.83952L15.6959 6.69237L7.66583 18.1605L9.30414 19.3076Z" fill="#BBBBBB"/>
</g>
<defs>
<clipPath id="clip0_752_268">
<rect width="15" height="18" fill="white" transform="translate(11.5186 1.32581) rotate(35)"/>
</clipPath>
</defs>
</svg>
