<svg width="25" height="25" viewBox="0 0 25 25" fill="none" xmlns="http://www.w3.org/2000/svg">
<circle cx="12.4999" cy="12.4997" r="11.25" stroke="#BBBBBB" stroke-width="1.5"/>
<g clip-path="url(#clip0_752_273)">
<path d="M18.1569 8.75737C18.5474 8.36684 18.5474 7.73368 18.1569 7.34316C17.7664 6.95263 17.1332 6.95263 16.7427 7.34316L18.1569 8.75737ZM6.55027 17.9498C6.55027 18.502 6.99799 18.9498 7.55027 18.9498H16.5503C17.1026 18.9498 17.5503 18.502 17.5503 17.9498C17.5503 17.3975 17.1026 16.9498 16.5503 16.9498H8.55027V8.94976C8.55027 8.39747 8.10256 7.94976 7.55027 7.94976C6.99799 7.94976 6.55027 8.39747 6.55027 8.94976V17.9498ZM16.7427 7.34316L6.84317 17.2426L8.25738 18.6569L18.1569 8.75737L16.7427 7.34316Z" fill="#BBBBBB"/>
</g>
<defs>
<clipPath id="clip0_752_273">
<rect width="15" height="18" fill="white" transform="translate(11.4394 24.6673) rotate(-135)"/>
</clipPath>
</defs>
</svg>
