<svg width="25" height="25" viewBox="0 0 25 25" fill="none" xmlns="http://www.w3.org/2000/svg">
<circle cx="12.5" cy="12.5" r="11.25" stroke="#BBBBBB" stroke-width="1.5"/>
<g clip-path="url(#clip0_752_258)">
<path d="M5.5 12C4.94772 12 4.5 12.4477 4.5 13C4.5 13.5523 4.94772 14 5.5 14V12ZM20.2071 13.7071C20.5976 13.3166 20.5976 12.6834 20.2071 12.2929L13.8431 5.92893C13.4526 5.53841 12.8195 5.53841 12.4289 5.92893C12.0384 6.31946 12.0384 6.95262 12.4289 7.34315L18.0858 13L12.4289 18.6569C12.0384 19.0474 12.0384 19.6805 12.4289 20.0711C12.8195 20.4616 13.4526 20.4616 13.8431 20.0711L20.2071 13.7071ZM5.5 14H19.5V12H5.5V14Z" fill="#BBBBBB"/>
</g>
<defs>
<clipPath id="clip0_752_258">
<rect width="15" height="18" fill="white" transform="matrix(0 1 -1 0 21.5 5.5)"/>
</clipPath>
</defs>
</svg>
