<svg width="22" height="22" viewBox="0 0 22 22" fill="none" xmlns="http://www.w3.org/2000/svg">
<g clip-path="url(#clip0_886_118)">
<path d="M11.7384 3.29245L2.21036 11.6162C1.50329 12.2339 1.43084 13.3078 2.04854 14.0149L7.6744 20.4547C8.2921 21.1618 9.36603 21.2342 10.0731 20.6165L19.6011 12.2928C19.9139 12.0196 20.1158 11.6413 20.1688 11.2295L20.9918 4.83321C21.122 3.82115 20.3375 2.9232 19.3172 2.91631L12.8683 2.87275C12.4531 2.86995 12.0511 3.01924 11.7384 3.29245Z" stroke="#BBBBBB" stroke-width="1.8"/>
<path d="M12.5652 13.4724L12.3633 13.2414C12.2101 13.0659 12.1063 12.8724 12.0522 12.6607C11.9982 12.4463 12.0039 12.2326 12.0693 12.0195C12.1348 11.8038 12.271 11.6056 12.4778 11.425C12.6875 11.2418 12.9023 11.1321 13.1222 11.096C13.3435 11.0585 13.5553 11.0822 13.7576 11.167C13.9601 11.2491 14.1386 11.3786 14.2931 11.5555L14.495 11.7866C14.6483 11.962 14.7526 12.1563 14.808 12.3694C14.8622 12.5811 14.8559 12.7941 14.7891 13.0084C14.7235 13.2241 14.5873 13.4223 14.3805 13.603C14.1708 13.7861 13.9554 13.8951 13.7343 13.9298C13.5144 13.966 13.3032 13.943 13.1007 13.8609C12.8969 13.7774 12.7184 13.6479 12.5652 13.4724ZM12.9859 12.6975L13.1878 12.9285C13.2762 13.0298 13.384 13.1042 13.511 13.1517C13.6394 13.1979 13.7685 13.1644 13.8983 13.051C14.0281 12.9376 14.0779 12.8161 14.0477 12.6866C14.0189 12.5558 13.9591 12.4383 13.8681 12.3342L13.6663 12.1031C13.5753 11.999 13.4678 11.9219 13.3436 11.872C13.2195 11.822 13.0904 11.8555 12.9563 11.9727C12.8279 12.0848 12.778 12.2076 12.8066 12.3411C12.8352 12.4746 12.895 12.5934 12.9859 12.6975ZM8.12605 12.9293L7.92419 12.6982C7.76968 12.5214 7.66606 12.3265 7.61331 12.1135C7.55932 11.8991 7.56501 11.6854 7.63039 11.4724C7.6972 11.2581 7.83259 11.0619 8.03655 10.8837C8.24765 10.6993 8.46314 10.589 8.68303 10.5528C8.90292 10.5167 9.11474 10.5403 9.31849 10.6239C9.521 10.706 9.69951 10.8355 9.85402 11.0124L10.0559 11.2434C10.2104 11.4203 10.314 11.6152 10.3668 11.8282C10.4209 12.0399 10.4146 12.2529 10.3478 12.4671C10.2812 12.6787 10.1437 12.8755 9.93549 13.0574C9.72725 13.2393 9.51247 13.349 9.29116 13.3864C9.07002 13.4212 8.85883 13.3982 8.65756 13.3175C8.45648 13.2341 8.27931 13.1047 8.12605 12.9293ZM8.55106 12.1506L8.75292 12.3817C8.84388 12.4858 8.95223 12.5609 9.07798 12.607C9.20516 12.6518 9.3315 12.6194 9.45702 12.5097C9.58824 12.3951 9.63876 12.273 9.60858 12.1434C9.57982 12.0126 9.51996 11.8952 9.429 11.7911L9.22715 11.56C9.13619 11.4559 9.02863 11.3788 8.90449 11.3288C8.78035 11.2788 8.65053 11.313 8.51503 11.4314C8.38808 11.5423 8.34024 11.6646 8.37149 11.7982C8.40274 11.9319 8.4626 12.0493 8.55106 12.1506ZM11.3167 16.0116L10.5013 8.99835L11.0619 8.50866L11.8772 15.522L11.3167 16.0116Z" fill="#BBBBBB"/>
<circle cx="15.675" cy="7.42499" r="1.875" stroke="#BBBBBB"/>
</g>
<defs>
<clipPath id="clip0_886_118">
<rect width="22" height="22" fill="white"/>
</clipPath>
</defs>
</svg>
