<svg width="25" height="25" viewBox="0 0 25 25" fill="none" xmlns="http://www.w3.org/2000/svg">
<circle cx="12.5" cy="12.5" r="11.25" stroke="#BBBBBB" stroke-width="1.5"/>
<path d="M16.5955 7.125H8.40449C7.99082 7.125 7.59551 7.29583 7.31204 7.59711L5.41372 9.61464C4.93404 10.1245 4.87075 10.8983 5.26121 11.4792L11.255 20.3976C11.8494 21.282 13.1506 21.282 13.745 20.3976L19.7388 11.4792C20.1293 10.8983 20.066 10.1245 19.5863 9.61464L17.688 7.59711C17.4045 7.29583 17.0092 7.125 16.5955 7.125Z" stroke="#BBBBBB" stroke-width="1.5" stroke-linecap="round"/>
<path d="M8.54688 8.5L9.88276 11.0556C10.0732 11.42 10.5975 11.4115 10.7762 11.0413L12.5 7.46875" stroke="#BBBBBB" stroke-width="0.8" stroke-linecap="round"/>
<path d="M12.5 7.46875L14.24 11.0749C14.4156 11.4388 14.9279 11.455 15.1261 11.1029L17.1719 7.46875" stroke="#BBBBBB" stroke-width="0.8" stroke-linecap="round"/>
<path d="M5.3125 10.5625L10.2941 11.5836C10.3271 11.5903 10.3607 11.5938 10.3945 11.5938H14.5973C14.6365 11.5938 14.6755 11.5891 14.7136 11.58L18.9688 10.5625" stroke="#BBBBBB" stroke-width="0.8" stroke-linecap="round"/>
<path d="M12.0099 19.8281L10.465 12.1929C10.4023 11.8832 10.6391 11.5938 10.9551 11.5938H14.0449C14.3609 11.5938 14.5977 11.8832 14.535 12.1929L12.9901 19.8281C12.8819 20.3625 12.1181 20.3625 12.0099 19.8281Z" stroke="#BBBBBB" stroke-width="0.8" stroke-linecap="round"/>
</svg>
