<svg width="22" height="22" viewBox="0 0 22 22" fill="none" xmlns="http://www.w3.org/2000/svg">
<path d="M3.4375 17.1875H18.5625" stroke="#6B6B6B" stroke-linecap="round"/>
<path d="M3.4375 13.0625H18.5625" stroke="#6B6B6B" stroke-linecap="round"/>
<path d="M3.4375 15.125H7.03869" stroke="#6B6B6B" stroke-linecap="round"/>
<path d="M8.47913 15.125H13.5208" stroke="#6B6B6B" stroke-linecap="round"/>
<path d="M14.9613 15.125H18.5625" stroke="#6B6B6B" stroke-linecap="round"/>
<path d="M3.4375 11H4.91071L5.5 5.5H4.32143" stroke="#6B6B6B" stroke-linecap="round"/>
<path d="M18.5625 11H17.0191L16.4018 5.5H17.6365" stroke="#6B6B6B" stroke-linecap="round"/>
<circle cx="11" cy="6.1875" r="1.1875" stroke="#6B6B6B"/>
<path d="M13.9375 6.6C13.9375 6.59916 13.9375 6.59932 13.9374 6.60058C13.9368 6.60603 13.9344 6.63208 13.9227 6.68564C13.9096 6.74618 13.8886 6.82481 13.8587 6.92133C13.799 7.11418 13.71 7.35895 13.5964 7.63967C13.3696 8.20037 13.0537 8.88235 12.7028 9.54123C12.3503 10.2031 11.9716 10.8245 11.6214 11.2734C11.4455 11.4989 11.2893 11.6645 11.1595 11.7693C11.0715 11.8402 11.0196 11.8639 11 11.8716C10.9804 11.8639 10.9285 11.8402 10.8405 11.7693C10.7107 11.6645 10.5545 11.4989 10.3786 11.2734C10.0284 10.8245 9.64966 10.2031 9.29718 9.54123C8.94631 8.88235 8.63044 8.20037 8.40359 7.63967C8.29002 7.35895 8.20102 7.11418 8.14131 6.92133C8.11142 6.82481 8.0904 6.74618 8.07725 6.68564C8.06562 6.63208 8.06315 6.60603 8.06263 6.60058C8.06252 6.59932 8.0625 6.59916 8.0625 6.6C8.0625 4.67572 9.25652 3.25 11 3.25C12.7435 3.25 13.9375 4.67572 13.9375 6.6Z" stroke="#6B6B6B"/>
</svg>
