<svg width="17" height="17" viewBox="0 0 17 17" fill="none" xmlns="http://www.w3.org/2000/svg">
<path d="M3.1875 9.82156V14.349C3.1875 15.1774 3.85907 15.849 4.6875 15.849H5.40625C6.23468 15.849 6.90625 15.1774 6.90625 14.349V13.4854C6.90625 12.6569 7.57782 11.9854 8.40625 11.9854H8.59375C9.42218 11.9854 10.0938 12.6569 10.0938 13.4854V14.349C10.0938 15.1774 10.7653 15.849 11.5938 15.849H12.3125C13.1409 15.849 13.8125 15.1774 13.8125 14.349V9.82156C13.8125 9.35851 13.5986 8.92141 13.233 8.63724L9.42054 5.67388C8.87902 5.25297 8.12098 5.25297 7.57946 5.67388L3.76696 8.63724C3.40136 8.92141 3.1875 9.35851 3.1875 9.82156Z" stroke="#6B6B6B" stroke-width="1.5" stroke-linecap="round"/>
<path d="M1.59375 7.70312L7.5575 2.88625C8.10735 2.44214 8.89265 2.44214 9.44251 2.88625L15.4062 7.70312" stroke="#6B6B6B" stroke-width="1.5" stroke-linecap="round"/>
<path d="M3.1875 3.15625V5.375C3.1875 5.78702 3.65788 6.02221 3.9875 5.775L5.1125 4.93125C5.2384 4.83682 5.3125 4.68863 5.3125 4.53125V3.15625C5.3125 2.88011 5.08864 2.65625 4.8125 2.65625H3.6875C3.41136 2.65625 3.1875 2.88011 3.1875 3.15625Z" stroke="#6B6B6B"/>
</svg>
