<svg width="43" height="38" viewBox="0 0 43 38" fill="none" xmlns="http://www.w3.org/2000/svg">
<path d="M23.8387 16.6147C25.4266 21.8683 22.4549 27.4144 17.2013 29.0023C11.9477 30.5902 6.40156 27.6185 4.81368 22.3649C3.2258 17.1113 6.19746 11.5652 11.4511 9.97731C16.7047 8.38943 22.2508 11.3611 23.8387 16.6147Z" stroke="#CACACA" stroke-width="2"/>
<path d="M23.317 24.9339L32.3079 30.378" stroke="#CACACA" stroke-width="2" stroke-linecap="round"/>
<circle cx="10" cy="18" r="2" fill="#CACACA"/>
<circle cx="18" cy="18" r="2" fill="#CACACA"/>
<path d="M17 25C17 23.8954 15.8807 23 14.5 23C13.1193 23 12 23.8954 12 25" stroke="#CACACA" stroke-linecap="round"/>
<path d="M32.2602 9.07367L32.2747 9.21783C32.3241 9.70967 32.32 10.1084 32.2622 10.414C32.2041 10.7168 32.1008 10.967 31.9523 11.1647C31.8062 11.3593 31.622 11.5434 31.3996 11.7171C31.2383 11.8447 31.0932 11.9778 30.9644 12.1164C30.8381 12.2518 30.7414 12.3972 30.6742 12.5524C30.607 12.7076 30.5828 12.8785 30.6016 13.0651C30.6212 13.2601 30.6849 13.425 30.7927 13.5598C30.9007 13.6974 31.0365 13.798 31.1999 13.8615C31.3664 13.9275 31.5444 13.951 31.7338 13.932C31.9175 13.9135 32.0872 13.855 32.2429 13.7566C32.3989 13.6609 32.5212 13.5287 32.6099 13.3599C32.6986 13.1911 32.7355 12.9904 32.7206 12.7577L34.4506 12.5837C34.4961 13.1502 34.4075 13.6317 34.1847 14.0281C33.9647 14.4243 33.6518 14.7341 33.246 14.9577C32.8433 15.1838 32.3847 15.3227 31.8703 15.3744C31.3106 15.4307 30.8037 15.3875 30.3497 15.2447C29.8987 15.1045 29.5327 14.8715 29.2515 14.5457C28.9703 14.2199 28.8047 13.8083 28.7547 13.3108C28.7214 12.9801 28.7457 12.6821 28.8275 12.4169C28.9119 12.1486 29.0418 11.9071 29.2172 11.6925C29.3952 11.4747 29.6078 11.2749 29.855 11.093C30.0647 10.9348 30.233 10.778 30.3602 10.6224C30.4898 10.4638 30.579 10.2864 30.6278 10.0901C30.6792 9.89083 30.6925 9.65393 30.6677 9.37946L30.6532 9.2353L32.2602 9.07367ZM31.1477 6.44453C31.4304 6.4161 31.682 6.49073 31.9026 6.66841C32.1232 6.84609 32.2449 7.07654 32.2677 7.35978C32.3012 7.63622 32.2275 7.88346 32.0467 8.10152C31.866 8.31957 31.6342 8.44281 31.3516 8.47124C31.083 8.49825 30.8371 8.42305 30.6136 8.24566C30.393 8.06798 30.266 7.84092 30.2325 7.56448C30.2162 7.37481 30.2471 7.19896 30.325 7.03694C30.4058 6.87463 30.5179 6.74058 30.6615 6.63477C30.8076 6.52586 30.9696 6.46244 31.1477 6.44453ZM36.9278 9.83338L36.9133 9.68922C36.8664 9.19427 36.8705 8.79555 36.9258 8.49305C36.9838 8.19026 37.0871 7.94003 37.2357 7.74235C37.3843 7.54467 37.5685 7.36054 37.7883 7.18996C37.9522 7.05927 38.0973 6.92618 38.2236 6.7907C38.3498 6.65523 38.4466 6.50987 38.5138 6.35464C38.5807 6.19658 38.6049 6.02569 38.5864 5.84196C38.5668 5.64692 38.5029 5.4806 38.3949 5.343C38.2868 5.20539 38.1497 5.10498 37.9834 5.04175C37.82 4.97824 37.6436 4.95601 37.4542 4.97506C37.2705 4.99354 37.1007 5.05201 36.945 5.15048C36.7891 5.24611 36.6667 5.37834 36.5781 5.54715C36.4891 5.71313 36.4521 5.91244 36.4669 6.14508L34.737 6.31908C34.6943 5.75233 34.783 5.27228 35.0033 4.87895C35.2233 4.48278 35.5362 4.17293 35.942 3.94937C36.3475 3.723 36.806 3.58408 37.3177 3.53262C37.8802 3.47604 38.387 3.51928 38.8383 3.66234C39.2892 3.80257 39.6553 4.03558 39.9365 4.36135C40.2177 4.68712 40.3831 5.09733 40.4329 5.59199C40.4661 5.92271 40.4406 6.22223 40.3562 6.49054C40.2744 6.75574 40.1459 6.99709 39.9708 7.21457C39.7954 7.42922 39.5827 7.62906 39.333 7.81408C39.123 7.96939 38.9532 8.12638 38.8236 8.28503C38.6967 8.44341 38.6075 8.62084 38.5559 8.81734C38.5071 9.01354 38.4952 9.2503 38.5203 9.52759L38.5348 9.67175L36.9278 9.83338ZM38.0403 12.4625C37.7576 12.491 37.506 12.4163 37.2854 12.2386C37.0673 12.0579 36.9456 11.8274 36.9203 11.5473C36.8896 11.2706 36.9633 11.0233 37.1412 10.8055C37.322 10.5875 37.5537 10.4642 37.8364 10.4358C38.1049 10.4088 38.3509 10.484 38.5743 10.6614C38.7978 10.8388 38.9248 11.0659 38.9555 11.3426C38.9714 11.5294 38.9392 11.7054 38.8587 11.8705C38.7808 12.0326 38.6702 12.1679 38.5269 12.2765C38.3834 12.3823 38.2212 12.4443 38.0403 12.4625Z" fill="#CACACA"/>
</svg>
