<svg width="25" height="25" viewBox="0 0 25 25" fill="none" xmlns="http://www.w3.org/2000/svg">
<circle cx="12.5" cy="12.5" r="11.25" stroke="#BBBBBB" stroke-width="1.5"/>
<path d="M17 10.0375C17 10.0374 17 10.0375 17 10.0379C16.9997 10.0425 16.9968 10.0859 16.9763 10.183C16.9558 10.2798 16.9233 10.4046 16.8774 10.5568C16.7857 10.8609 16.6493 11.2461 16.4755 11.687C16.1285 12.5678 15.6454 13.6387 15.1089 14.6731C14.57 15.7122 13.9905 16.6887 13.454 17.3948C13.1845 17.7496 12.9445 18.0109 12.7446 18.1765C12.6105 18.2876 12.5308 18.3254 12.5 18.338C12.4692 18.3254 12.3895 18.2876 12.2554 18.1765C12.0555 18.0109 11.8155 17.7496 11.546 17.3948C11.0095 16.6887 10.43 15.7122 9.8911 14.6731C9.35459 13.6387 8.87153 12.5678 8.52447 11.687C8.35073 11.2461 8.2143 10.8609 8.12259 10.5568C8.07669 10.4046 8.04417 10.2798 8.0237 10.183C8.00316 10.0859 8.00033 10.0425 8.00003 10.0379C8.00001 10.0375 8 10.0374 8 10.0375C8 6.98622 9.84469 4.75 12.5 4.75C15.1553 4.75 17 6.98622 17 10.0375Z" stroke="#BBBBBB" stroke-width="1.5"/>
<path fill-rule="evenodd" clip-rule="evenodd" d="M9.61808 16.1561C7.8135 16.6015 6.59375 17.4522 6.59375 18.4285C6.59375 19.866 9.23807 21.0313 12.5 21.0313C15.7619 21.0313 18.4062 19.866 18.4062 18.4285C18.4062 17.4522 17.1864 16.6014 15.3817 16.156C15.1575 16.5199 14.9136 16.8783 14.6495 17.2233C15.2449 17.3389 15.7674 17.4988 16.1924 17.6862C16.6358 17.8815 16.9198 18.0832 17.0764 18.2463C17.172 18.346 17.1986 18.4064 17.2052 18.4285C17.1986 18.4505 17.172 18.511 17.0764 18.6107C16.9198 18.7738 16.6358 18.9754 16.1924 19.1708C15.309 19.5601 14.0045 19.8313 12.5 19.8313C10.9955 19.8313 9.69103 19.5601 8.80756 19.1708C8.36417 18.9754 8.08022 18.7738 7.92364 18.6107C7.82798 18.511 7.80141 18.4505 7.79477 18.4285C7.80141 18.4064 7.82798 18.346 7.92364 18.2463C8.08022 18.0832 8.36417 17.8815 8.80756 17.6862C9.23255 17.4989 9.75498 17.3389 10.3502 17.2234C10.0862 16.8783 9.84231 16.5199 9.61808 16.1561ZM17.2072 18.419C17.2073 18.419 17.2072 18.4208 17.2064 18.4244C17.2066 18.4208 17.207 18.419 17.2072 18.419ZM7.79283 18.419C7.79299 18.419 7.79343 18.4208 7.79364 18.4243C7.79276 18.4208 7.79266 18.419 7.79283 18.419ZM7.79283 18.438C7.79266 18.438 7.79276 18.4362 7.79364 18.4326C7.79343 18.4362 7.79299 18.438 7.79283 18.438ZM17.2064 18.4326C17.2072 18.4362 17.2073 18.438 17.2072 18.438C17.207 18.438 17.2066 18.4362 17.2064 18.4326Z" fill="#BBBBBB"/>
<circle cx="12.5" cy="9.625" r="2.125" stroke="#BBBBBB"/>
</svg>
