<svg width="25" height="25" viewBox="0 0 25 25" fill="none" xmlns="http://www.w3.org/2000/svg">
<circle cx="12.5" cy="12.5" r="11.5" stroke="white" stroke-width="2"/>
<g clip-path="url(#clip0_1053_3)">
<path d="M19.5 14C20.0523 14 20.5 13.5523 20.5 13C20.5 12.4477 20.0523 12 19.5 12V14ZM4.79289 12.2929C4.40237 12.6834 4.40237 13.3166 4.79289 13.7071L11.1569 20.0711C11.5474 20.4616 12.1805 20.4616 12.5711 20.0711C12.9616 19.6805 12.9616 19.0474 12.5711 18.6569L6.91421 13L12.5711 7.34315C12.9616 6.95262 12.9616 6.31946 12.5711 5.92893C12.1805 5.53841 11.5474 5.53841 11.1569 5.92893L4.79289 12.2929ZM19.5 12L5.5 12V14L19.5 14V12Z" fill="white"/>
</g>
<defs>
<clipPath id="clip0_1053_3">
<rect width="15" height="18" fill="white" transform="matrix(0 -1 1 0 3.5 20.5)"/>
</clipPath>
</defs>
</svg>
