<svg width="25" height="25" viewBox="0 0 25 25" fill="none" xmlns="http://www.w3.org/2000/svg">
<circle cx="12.5" cy="12.5" r="11.25" stroke="#BBBBBB" stroke-width="1.5"/>
<path d="M5.70447 15.25C5.54967 14.3463 6.24582 13.5 7.18366 13.5H17.8163C18.7542 13.5 19.4503 14.3463 19.2955 15.25H5.70447ZM5.95998 16.25H19.04L18.8755 16.8793C18.703 17.5395 18.1066 18 17.4243 18H7.57571C6.89336 18 6.297 17.5395 6.12445 16.8793L5.95998 16.25Z" stroke="#BBBBBB"/>
<path d="M10.2907 18.3125H14.7093C14.9109 18.3125 15.0928 18.4336 15.1706 18.6196L15.7717 20.0571C15.9094 20.3865 15.6675 20.75 15.3104 20.75H9.6896C9.33253 20.75 9.09055 20.3865 9.22831 20.0571L9.82945 18.6196C9.90723 18.4336 10.0891 18.3125 10.2907 18.3125Z" stroke="#BBBBBB"/>
<path d="M5.20727 9.46802L8.96562 8.39738V10.3265L5.20727 9.46802Z" stroke="#BBBBBB" stroke-width="0.6"/>
<mask id="path-5-inside-1_393_140" fill="white">
<path fill-rule="evenodd" clip-rule="evenodd" d="M16.5312 7.8125V12.6875H8.46875V10.3786C8.35424 10.4023 8.2332 10.4062 8.10977 10.3867L7.97903 10.3661C7.77018 10.3331 7.60009 10.2505 7.46875 10.1366V12.6875V13.6875H8.46875H16.5312H17.5312V12.6875V7.8125V6.8125H16.5312H12.5H8.46875H7.46875V7.8125V8.61996C7.60009 8.50609 7.77019 8.42346 7.97903 8.39051L8.10977 8.36988C8.2332 8.35041 8.35424 8.3543 8.46875 8.37802V7.8125H12.5H16.5312Z"/>
</mask>
<path fill-rule="evenodd" clip-rule="evenodd" d="M16.5312 7.8125V12.6875H8.46875V10.3786C8.35424 10.4023 8.2332 10.4062 8.10977 10.3867L7.97903 10.3661C7.77018 10.3331 7.60009 10.2505 7.46875 10.1366V12.6875V13.6875H8.46875H16.5312H17.5312V12.6875V7.8125V6.8125H16.5312H12.5H8.46875H7.46875V7.8125V8.61996C7.60009 8.50609 7.77019 8.42346 7.97903 8.39051L8.10977 8.36988C8.2332 8.35041 8.35424 8.3543 8.46875 8.37802V7.8125H12.5H16.5312Z" fill="#D9D9D9"/>
<path d="M16.5312 12.6875V13.4875H17.3313V12.6875H16.5312ZM16.5312 7.8125H17.3313V7.0125H16.5312V7.8125ZM8.46875 12.6875H7.66875V13.4875H8.46875V12.6875ZM8.46875 10.3786H9.26875V9.39583L8.30645 9.5952L8.46875 10.3786ZM8.10977 10.3867L7.98508 11.1769L7.98508 11.1769L8.10977 10.3867ZM7.97903 10.3661L8.10372 9.57585L8.10372 9.57585L7.97903 10.3661ZM7.46875 10.1366L7.9928 9.53216L6.66875 8.38425V10.1366H7.46875ZM7.46875 13.6875H6.66875V14.4875H7.46875V13.6875ZM17.5312 13.6875V14.4875H18.3313V13.6875H17.5312ZM17.5312 6.8125H18.3313V6.0125H17.5312V6.8125ZM7.46875 6.8125V6.0125H6.66875V6.8125H7.46875ZM7.46875 8.61996H6.66875V10.3723L7.9928 9.22442L7.46875 8.61996ZM7.97903 8.39051L8.10372 9.18074L8.10372 9.18074L7.97903 8.39051ZM8.10977 8.36988L7.98508 7.57966L7.98508 7.57966L8.10977 8.36988ZM8.46875 8.37802L8.30646 9.16138L9.26875 9.36075V8.37802H8.46875ZM8.46875 7.8125V7.0125H7.66875V7.8125H8.46875ZM17.3313 12.6875V7.8125H15.7312V12.6875H17.3313ZM8.46875 13.4875H16.5312V11.8875H8.46875V13.4875ZM7.66875 10.3786V12.6875H9.26875V10.3786H7.66875ZM8.30645 9.5952C8.28519 9.5996 8.26138 9.60072 8.23445 9.59648L7.98508 11.1769C8.20503 11.2116 8.42329 11.205 8.63105 11.1619L8.30645 9.5952ZM8.23445 9.59648L8.10372 9.57585L7.85434 11.1563L7.98508 11.1769L8.23445 9.59648ZM8.10372 9.57585C8.06846 9.57028 8.04429 9.56184 8.02836 9.55453C8.01247 9.54724 8.00123 9.53947 7.9928 9.53216L6.9447 10.7411C7.19358 10.9569 7.50351 11.1009 7.85434 11.1563L8.10372 9.57585ZM6.66875 10.1366V12.6875H8.26875V10.1366H6.66875ZM6.66875 12.6875V13.6875H8.26875V12.6875H6.66875ZM7.46875 14.4875H8.46875V12.8875H7.46875V14.4875ZM8.46875 14.4875H16.5312V12.8875H8.46875V14.4875ZM16.5312 14.4875H17.5312V12.8875H16.5312V14.4875ZM18.3313 13.6875V12.6875H16.7312V13.6875H18.3313ZM18.3313 12.6875V7.8125H16.7312V12.6875H18.3313ZM18.3313 7.8125V6.8125H16.7312V7.8125H18.3313ZM17.5312 6.0125H16.5312V7.6125H17.5312V6.0125ZM16.5312 6.0125H12.5V7.6125H16.5312V6.0125ZM12.5 6.0125H8.46875V7.6125H12.5V6.0125ZM8.46875 6.0125H7.46875V7.6125H8.46875V6.0125ZM6.66875 6.8125V7.8125H8.26875V6.8125H6.66875ZM6.66875 7.8125V8.61996H8.26875V7.8125H6.66875ZM7.9928 9.22442C8.00123 9.21711 8.01247 9.20934 8.02836 9.20205C8.04429 9.19474 8.06846 9.1863 8.10372 9.18074L7.85435 7.60029C7.50351 7.65564 7.19358 7.79973 6.9447 8.0155L7.9928 9.22442ZM8.10372 9.18074L8.23445 9.16011L7.98508 7.57966L7.85435 7.60029L8.10372 9.18074ZM8.23445 9.16011C8.26138 9.15586 8.28519 9.15698 8.30646 9.16138L8.63104 7.59465C8.42329 7.55161 8.20503 7.54495 7.98508 7.57966L8.23445 9.16011ZM7.66875 7.8125V8.37802H9.26875V7.8125H7.66875ZM12.5 7.0125H8.46875V8.6125H12.5V7.0125ZM16.5312 7.0125H12.5V8.6125H16.5312V7.0125Z" fill="#BBBBBB" mask="url(#path-5-inside-1_393_140)"/>
<rect x="6.53125" y="5.25" width="11.9375" height="1.75" rx="0.875" stroke="#BBBBBB"/>
</svg>
