<svg width="25" height="25" viewBox="0 0 25 25" fill="none" xmlns="http://www.w3.org/2000/svg">
<circle cx="12.5" cy="12.5" r="11.25" stroke="#BBBBBB" stroke-width="1.5"/>
<path d="M13.5 6C13.5 5.44772 13.0523 5 12.5 5C11.9477 5 11.5 5.44772 11.5 6H13.5ZM11.7929 20.7071C12.1834 21.0976 12.8166 21.0976 13.2071 20.7071L19.5711 14.3431C19.9616 13.9526 19.9616 13.3195 19.5711 12.9289C19.1805 12.5384 18.5474 12.5384 18.1569 12.9289L12.5 18.5858L6.84315 12.9289C6.45262 12.5384 5.81946 12.5384 5.42893 12.9289C5.03841 13.3195 5.03841 13.9526 5.42893 14.3431L11.7929 20.7071ZM11.5 6L11.5 20H13.5L13.5 6H11.5Z" fill="#BBBBBB"/>
</svg>
