<svg width="21" height="21" viewBox="0 0 21 21" fill="none" xmlns="http://www.w3.org/2000/svg">
<path fill-rule="evenodd" clip-rule="evenodd" d="M10.5 19.95C15.7191 19.95 19.95 15.7191 19.95 10.5C19.95 5.2809 15.7191 1.04999 10.5 1.04999C5.2809 1.04999 1.04999 5.2809 1.04999 10.5C1.04999 15.7191 5.2809 19.95 10.5 19.95ZM16.4741 8.03964C16.855 7.63971 16.8396 7.00674 16.4396 6.62585C16.0397 6.24496 15.4067 6.2604 15.0258 6.66033L8.69633 13.3063L5.91895 10.8067C5.50844 10.4372 4.87615 10.4705 4.50669 10.881C4.13723 11.2915 4.17051 11.9238 4.58102 12.2933L8.08102 15.4433L8.80365 16.0936L9.47412 15.3896L16.4741 8.03964Z" fill="#37C85C" fill-opacity="0.996078"/>
</svg>
